<?xml version="1.0" encoding="UTF-8"?>
<!DOCTYPE svg PUBLIC "-//W3C//DTD SVG 1.1//EN" "http://www.w3.org/Graphics/SVG/1.1/DTD/svg11.dtd">
<svg version="1.1" xmlns="http://www.w3.org/2000/svg" xmlns:xlink="http://www.w3.org/1999/xlink" x="0" y="0" width="200" height="200" viewBox="0, 0, 200, 200">
  <g id="Layer_1">
    <g>
      <path d="M100.5,185.5 C53.556,185.5 15.5,147.444 15.5,100.5 C15.5,53.556 53.556,15.5 100.5,15.5 C147.444,15.5 185.5,53.556 185.5,100.5 C185.5,147.444 147.444,185.5 100.5,185.5 z" fill="#FFFFFF"/>
      <path d="M103.025,181.279 L101.928,181.272 L99.753,181.216 L97.596,181.107 L95.453,180.944 L93.324,180.727 L91.211,180.459 L89.115,180.138 L87.035,179.767 L84.973,179.344 L82.929,178.872 L80.903,178.351 L78.898,177.781 L76.913,177.164 L74.949,176.499 L73.006,175.788 L71.086,175.031 L69.189,174.228 L67.317,173.381 L65.468,172.49 L63.644,171.556 L61.847,170.58 L60.076,169.561 L58.331,168.501 L56.615,167.401 L54.928,166.261 L53.269,165.081 L51.641,163.863 L50.043,162.607 L48.477,161.315 L46.942,159.985 L45.44,158.62 L43.972,157.219 L42.537,155.784 L41.137,154.316 L39.772,152.814 L38.443,151.28 L37.151,149.714 L35.896,148.117 L34.679,146.489 L33.501,144.832 L32.362,143.147 L31.263,141.432 L30.205,139.691 L29.188,137.922 L28.214,136.127 L27.281,134.307 L26.393,132.462 L25.548,130.593 L24.748,128.701 L23.993,126.786 L23.284,124.849 L22.622,122.892 L22.007,120.914 L21.44,118.917 L20.921,116.9 L20.452,114.866 L20.033,112.815 L19.664,110.748 L19.346,108.664 L19.08,106.567 L18.866,104.456 L18.705,102.332 L18.597,100.196 L18.543,98.05 L18.536,96.984 L18.536,97.006 L18.543,95.908 L18.598,93.758 L18.706,91.637 L18.867,89.537 L19.079,87.458 L19.341,85.401 L19.653,83.368 L20.012,81.361 L20.418,79.381 L20.87,77.43 L21.365,75.511 L21.902,73.626 L22.48,71.775 L23.095,69.964 L23.746,68.192 L24.43,66.464 L25.145,64.781 L25.889,63.145 L26.658,61.556 L27.452,60.015 L28.268,58.521 L29.107,57.07 L29.969,55.662 L30.856,54.287 L31.771,52.942 L32.717,51.62 L33.7,50.314 L34.722,49.021 L35.787,47.737 L36.9,46.46 L38.059,45.189 L39.268,43.926 L40.527,42.672 L41.834,41.43 L43.189,40.202 L44.59,38.991 L46.035,37.801 L47.524,36.634 L49.054,35.491 L50.623,34.378 L52.231,33.293 L53.874,32.241 L55.552,31.222 L57.265,30.239 L59.01,29.292 L60.785,28.383 L62.59,27.514 L64.424,26.686 L66.286,25.899 L68.173,25.155 L70.087,24.455 L72.025,23.8 L73.988,23.19 L75.973,22.627 L77.98,22.111 L80.008,21.643 L82.056,21.224 L84.124,20.855 L86.21,20.537 L88.315,20.269 L90.437,20.054 L92.575,19.892 L94.728,19.783 L96.897,19.728 L97.983,19.721 L97.975,19.721 L99.073,19.728 L101.247,19.784 L103.404,19.893 L105.547,20.056 L107.676,20.273 L109.788,20.541 L111.885,20.862 L113.965,21.233 L116.027,21.656 L118.071,22.128 L120.097,22.649 L122.102,23.218 L124.087,23.836 L126.051,24.501 L127.993,25.212 L129.914,25.969 L131.81,26.772 L133.684,27.619 L135.532,28.51 L137.356,29.444 L139.153,30.42 L140.924,31.439 L142.669,32.499 L144.385,33.599 L146.072,34.739 L147.731,35.919 L149.359,37.137 L150.957,38.393 L152.523,39.685 L154.058,41.015 L155.56,42.38 L157.028,43.781 L158.463,45.216 L159.863,46.684 L161.228,48.186 L162.557,49.72 L163.849,51.286 L165.104,52.883 L166.321,54.511 L167.499,56.168 L168.638,57.854 L169.737,59.568 L170.795,61.309 L171.812,63.078 L172.786,64.873 L173.719,66.693 L174.607,68.538 L175.452,70.407 L176.252,72.299 L177.007,74.214 L177.716,76.151 L178.378,78.108 L178.993,80.086 L179.56,82.084 L180.079,84.1 L180.548,86.134 L180.967,88.185 L181.336,90.252 L181.654,92.336 L181.92,94.433 L182.134,96.544 L182.296,98.668 L182.403,100.804 L182.457,102.951 L182.464,104.016 L182.464,103.994 L182.457,105.092 L182.402,107.243 L182.294,109.363 L182.133,111.463 L181.921,113.543 L181.659,115.599 L181.347,117.632 L180.988,119.639 L180.582,121.619 L180.13,123.57 L179.635,125.489 L179.098,127.374 L178.52,129.225 L177.905,131.036 L177.254,132.808 L176.57,134.536 L175.855,136.219 L175.111,137.856 L174.342,139.444 L173.548,140.985 L172.732,142.479 L171.893,143.929 L171.031,145.338 L170.144,146.713 L169.229,148.058 L168.283,149.381 L167.3,150.686 L166.278,151.979 L165.213,153.263 L164.101,154.54 L162.94,155.811 L161.731,157.074 L160.473,158.328 L159.166,159.57 L157.811,160.798 L156.41,162.008 L154.965,163.199 L153.477,164.366 L151.946,165.508 L150.377,166.622 L148.77,167.707 L147.126,168.759 L145.447,169.778 L143.735,170.761 L141.991,171.708 L140.215,172.617 L138.41,173.486 L136.576,174.314 L134.715,175.101 L132.826,175.845 L130.913,176.545 L128.974,177.2 L127.012,177.81 L125.027,178.373 L123.02,178.889 L120.992,179.357 L118.944,179.776 L116.876,180.145 L114.789,180.463 L112.685,180.731 L110.563,180.946 L108.425,181.108 L106.271,181.217 L104.103,181.272 L103.017,181.279 L103.536,181.994 L103.536,181.995 L103.536,181.995 C103.537,180.696 102.177,181.212 100.5,183.148 C98.823,185.083 97.464,187.706 97.464,189.005 C97.464,189.005 97.464,189.005 97.464,189.005 L97.464,189.006 L97.464,189.006 C97.464,189.474 97.644,189.723 97.983,189.721 L97.983,189.721 L99.095,189.714 L101.3,189.658 L103.492,189.547 L105.671,189.381 L107.836,189.161 L109.985,188.887 L112.119,188.561 L114.237,188.182 L116.339,187.752 L118.423,187.27 L120.49,186.738 L122.539,186.156 L124.569,185.524 L126.58,184.843 L128.572,184.113 L130.544,183.335 L132.496,182.509 L134.428,181.635 L136.338,180.713 L138.228,179.745 L140.097,178.729 L141.945,177.665 L143.77,176.554 L145.576,175.395 L147.36,174.189 L149.123,172.933 L150.866,171.628 L152.589,170.271 L154.292,168.863 L155.975,167.402 L157.64,165.886 L159.285,164.314 L160.91,162.684 L162.516,160.994 L164.099,159.246 L165.659,157.439 L167.192,155.575 L168.693,153.657 L170.159,151.689 L171.582,149.679 L172.958,147.633 L174.282,145.558 L175.55,143.463 L176.758,141.353 L177.904,139.234 L178.988,137.109 L180.009,134.982 L180.968,132.853 L181.866,130.723 L182.704,128.591 L183.483,126.457 L184.204,124.319 L184.869,122.177 L185.477,120.028 L186.03,117.874 L186.527,115.712 L186.97,113.542 L187.358,111.363 L187.692,109.175 L187.97,106.978 L188.193,104.771 L188.361,102.555 L188.473,100.329 L188.529,98.105 L188.536,97.006 L188.536,97.006 C188.536,96.998 188.536,96.991 188.536,96.984 L188.536,96.984 L188.529,95.852 L188.472,93.624 L188.36,91.414 L188.192,89.221 L187.971,87.046 L187.697,84.89 L187.37,82.752 L186.991,80.634 L186.561,78.535 L186.081,76.456 L185.551,74.399 L184.973,72.363 L184.346,70.348 L183.672,68.356 L182.951,66.387 L182.184,64.442 L181.371,62.52 L180.513,60.624 L179.611,58.753 L178.666,56.908 L177.678,55.09 L176.648,53.299 L175.577,51.535 L174.464,49.801 L173.312,48.095 L172.12,46.42 L170.89,44.774 L169.621,43.16 L168.315,41.578 L166.972,40.028 L165.593,38.51 L164.178,37.027 L162.729,35.578 L161.246,34.164 L159.729,32.785 L158.179,31.443 L156.597,30.137 L154.984,28.87 L153.339,27.64 L151.665,26.45 L149.961,25.299 L148.228,24.188 L146.467,23.118 L144.679,22.09 L142.863,21.104 L141.021,20.16 L139.154,19.261 L137.262,18.405 L135.346,17.595 L133.405,16.83 L131.442,16.111 L129.457,15.44 L127.449,14.815 L125.421,14.24 L123.372,13.713 L121.304,13.235 L119.216,12.808 L117.11,12.432 L114.986,12.108 L112.845,11.836 L110.687,11.617 L108.514,11.452 L106.324,11.341 L104.124,11.286 L103.025,11.279 L103.025,11.279 C103.023,11.279 103.02,11.279 103.017,11.279 L103.017,11.279 L101.906,11.286 L99.7,11.342 L97.508,11.453 L95.329,11.619 L93.164,11.839 L91.015,12.113 L88.881,12.439 L86.763,12.818 L84.661,13.248 L82.577,13.73 L80.51,14.262 L78.461,14.844 L76.431,15.476 L74.42,16.157 L72.428,16.887 L70.455,17.665 L68.504,18.491 L66.572,19.365 L64.662,20.287 L62.771,21.256 L60.903,22.272 L59.056,23.335 L57.229,24.446 L55.424,25.605 L53.64,26.811 L51.876,28.067 L50.134,29.373 L48.411,30.729 L46.708,32.137 L45.025,33.598 L43.36,35.114 L41.716,36.686 L40.09,38.316 L38.485,40.005 L36.9,41.754 L35.341,43.561 L33.808,45.425 L32.307,47.343 L30.841,49.311 L29.418,51.321 L28.042,53.367 L26.718,55.442 L25.45,57.538 L24.242,59.647 L23.096,61.766 L22.012,63.89 L20.991,66.018 L20.032,68.146 L19.134,70.277 L18.296,72.409 L17.517,74.543 L16.796,76.681 L16.131,78.823 L15.523,80.972 L14.97,83.126 L14.473,85.288 L14.03,87.458 L13.642,89.637 L13.308,91.825 L13.03,94.022 L12.807,96.228 L12.639,98.445 L12.527,100.671 L12.471,102.895 L12.464,103.994 L12.464,103.994 C12.464,104.001 12.464,104.009 12.464,104.016 L12.464,104.016 L12.471,105.148 L12.528,107.376 L12.64,109.586 L12.808,111.779 L13.029,113.954 L13.303,116.11 L13.63,118.248 L14.009,120.367 L14.439,122.465 L14.919,124.544 L15.448,126.601 L16.027,128.637 L16.654,130.652 L17.328,132.644 L18.049,134.613 L18.817,136.558 L19.629,138.48 L20.487,140.376 L21.389,142.247 L22.334,144.092 L23.322,145.91 L24.352,147.701 L25.423,149.464 L26.535,151.199 L27.688,152.905 L28.88,154.58 L30.11,156.226 L31.379,157.84 L32.685,159.422 L34.028,160.973 L35.407,162.49 L36.822,163.973 L38.271,165.422 L39.754,166.836 L41.271,168.215 L42.821,169.557 L44.403,170.863 L46.016,172.13 L47.661,173.36 L49.335,174.55 L51.039,175.701 L52.772,176.812 L54.533,177.882 L56.321,178.91 L58.137,179.896 L59.978,180.84 L61.846,181.739 L63.738,182.595 L65.655,183.405 L67.595,184.17 L69.558,184.889 L71.543,185.56 L73.551,186.185 L75.579,186.76 L77.628,187.287 L79.696,187.765 L81.784,188.192 L83.89,188.568 L86.014,188.892 L88.155,189.164 L90.313,189.383 L92.486,189.548 L94.676,189.659 L96.875,189.714 L97.975,189.721 C98.906,189.727 100.791,187.842 102.186,185.51 C103.581,183.179 103.957,181.284 103.025,181.279 L103.025,181.279" fill="#000000"/>
    </g>
    <text transform="matrix(1, 0, 0, 1, 106.56, 107)">
      <tspan x="-34.56" y="48" font-family="MarkerFelt-Wide" font-size="144" fill="#000000">?</tspan>
    </text>
  </g>
</svg>
