<?xml version="1.0" encoding="UTF-8"?>
<!DOCTYPE svg PUBLIC "-//W3C//DTD SVG 1.1//EN" "http://www.w3.org/Graphics/SVG/1.1/DTD/svg11.dtd">
<svg version="1.1" xmlns="http://www.w3.org/2000/svg" xmlns:xlink="http://www.w3.org/1999/xlink" x="0" y="0" width="200" height="200" viewBox="0, 0, 200, 200">
  <g id="Layer_1">
    <g>
      <path d="M100.5,185.5 C53.556,185.5 15.5,147.444 15.5,100.5 C15.5,53.556 53.556,15.5 100.5,15.5 C147.444,15.5 185.5,53.556 185.5,100.5 C185.5,147.444 147.444,185.5 100.5,185.5 z" fill="#EECC00"/>
      <path d="M103.029,181.279 L100.836,181.251 L96.515,181.032 L92.259,180.599 L88.066,179.958 L83.942,179.113 L79.892,178.071 L75.923,176.836 L72.039,175.413 L68.245,173.808 L64.548,172.026 L60.953,170.073 L57.466,167.953 L54.091,165.673 L50.835,163.237 L47.702,160.651 L44.698,157.921 L41.829,155.051 L39.099,152.047 L36.515,148.915 L34.082,145.66 L31.804,142.288 L29.688,138.804 L27.739,135.214 L25.961,131.524 L24.361,127.739 L22.944,123.865 L21.715,119.908 L20.678,115.875 L19.839,111.771 L19.204,107.603 L18.777,103.379 L18.562,99.104 L18.536,96.972 L18.536,97.018 L18.564,94.825 L18.782,90.556 L19.207,86.392 L19.833,82.319 L20.65,78.35 L21.646,74.5 L22.808,70.785 L24.121,67.224 L25.566,63.836 L27.122,60.636 L28.775,57.627 L30.517,54.795 L32.358,52.105 L34.326,49.508 L36.451,46.961 L38.759,44.447 L41.261,41.964 L43.956,39.529 L46.834,37.165 L49.883,34.894 L53.089,32.735 L56.439,30.705 L59.922,28.817 L63.529,27.083 L67.248,25.513 L71.072,24.115 L74.993,22.898 L79.005,21.867 L83.1,21.031 L87.272,20.395 L91.514,19.965 L95.82,19.748 L97.987,19.721 L97.971,19.721 L100.164,19.749 L104.486,19.968 L108.741,20.401 L112.934,21.042 L117.058,21.887 L121.107,22.929 L125.077,24.164 L128.961,25.587 L132.755,27.192 L136.452,28.974 L140.047,30.927 L143.534,33.046 L146.909,35.327 L150.165,37.763 L153.298,40.349 L156.302,43.079 L159.171,45.949 L161.901,48.953 L164.485,52.085 L166.918,55.34 L169.196,58.712 L171.312,62.196 L173.261,65.786 L175.039,69.476 L176.639,73.261 L178.056,77.135 L179.285,81.092 L180.322,85.125 L181.161,89.23 L181.796,93.397 L182.223,97.622 L182.438,101.896 L182.464,104.027 L182.464,103.982 L182.436,106.175 L182.218,110.444 L181.793,114.608 L181.167,118.681 L180.35,122.65 L179.354,126.5 L178.192,130.215 L176.879,133.776 L175.434,137.164 L173.878,140.364 L172.225,143.373 L170.483,146.205 L168.642,148.895 L166.674,151.493 L164.549,154.038 L162.241,156.553 L159.739,159.036 L157.044,161.471 L154.166,163.835 L151.117,166.106 L147.911,168.265 L144.561,170.295 L141.077,172.183 L137.472,173.917 L133.753,175.487 L129.928,176.885 L126.007,178.102 L121.995,179.133 L117.9,179.969 L113.728,180.605 L109.486,181.035 L105.18,181.252 L103.013,181.279 L103.536,181.994 L103.536,181.995 L103.536,181.995 C103.537,180.696 102.177,181.212 100.5,183.148 C98.823,185.083 97.464,187.706 97.464,189.005 C97.464,189.005 97.464,189.005 97.464,189.005 L97.464,189.006 L97.464,189.006 C97.464,189.476 97.646,189.725 97.987,189.721 L97.987,189.721 L100.208,189.693 L104.594,189.47 L108.924,189.029 L113.193,188.376 L117.397,187.514 L121.533,186.448 L125.596,185.183 L129.582,183.721 L133.489,182.066 L137.315,180.219 L141.058,178.182 L144.717,175.953 L148.294,173.53 L151.79,170.907 L155.208,168.075 L158.551,165.022 L161.816,161.737 L164.996,158.214 L168.067,154.463 L170.994,150.516 L173.735,146.423 L176.252,142.246 L178.525,138.028 L180.548,133.797 L182.329,129.559 L183.876,125.309 L185.197,121.04 L186.296,116.743 L187.178,112.412 L187.842,108.044 L188.286,103.636 L188.509,99.213 L188.536,97.018 L188.536,97.018 C188.536,97.002 188.536,96.987 188.536,96.973 L188.536,96.973 L188.507,94.717 L188.281,90.298 L187.838,85.951 L187.184,81.678 L186.325,77.482 L185.265,73.369 L184.012,69.341 L182.57,65.404 L180.944,61.562 L179.141,57.821 L177.165,54.185 L175.022,50.659 L172.718,47.249 L170.256,43.959 L167.644,40.794 L164.886,37.761 L161.988,34.863 L158.954,32.106 L155.79,29.496 L152.502,27.037 L149.094,24.736 L145.572,22.596 L141.941,20.624 L138.206,18.825 L134.373,17.205 L130.447,15.768 L126.432,14.52 L122.334,13.466 L118.159,12.613 L113.911,11.965 L109.594,11.527 L105.224,11.306 L103.029,11.279 L103.029,11.279 C103.024,11.279 103.019,11.279 103.013,11.279 L103.013,11.279 L100.792,11.307 L96.406,11.53 L92.076,11.971 L87.807,12.624 L83.602,13.486 L79.467,14.552 L75.404,15.817 L71.418,17.279 L67.51,18.934 L63.685,20.781 L59.942,22.818 L56.283,25.047 L52.706,27.47 L49.21,30.093 L45.792,32.926 L42.449,35.978 L39.183,39.264 L36.004,42.786 L32.933,46.537 L30.006,50.484 L27.265,54.576 L24.748,58.754 L22.476,62.971 L20.451,67.203 L18.671,71.441 L17.124,75.691 L15.803,79.96 L14.704,84.258 L13.822,88.588 L13.159,92.956 L12.714,97.364 L12.491,101.787 L12.464,103.982 L12.464,103.982 C12.464,103.997 12.464,104.013 12.464,104.028 L12.464,104.028 L12.493,106.284 L12.719,110.701 L13.162,115.049 L13.816,119.322 L14.675,123.518 L15.735,127.631 L16.988,131.659 L18.43,135.596 L20.056,139.438 L21.859,143.179 L23.835,146.815 L25.978,150.34 L28.282,153.751 L30.743,157.041 L33.356,160.205 L36.114,163.239 L39.012,166.137 L42.046,168.894 L45.21,171.504 L48.498,173.963 L51.906,176.264 L55.428,178.404 L59.059,180.376 L62.794,182.175 L66.627,183.795 L70.553,185.232 L74.568,186.48 L78.665,187.534 L82.841,188.387 L87.089,189.035 L91.406,189.473 L95.776,189.694 L97.971,189.721 C97.971,189.721 97.971,189.721 97.971,189.721 C98.898,189.732 100.783,187.851 102.18,185.52 C103.577,183.189 103.957,181.29 103.029,181.279 L103.029,181.279" fill="#000000"/>
    </g>
    <g>
      <path d="M70.5,60.5 L94.5,60.5 L94.5,140.5 L70.5,140.5 L70.5,60.5 z" fill="#000000"/>
      <path d="M70.5,60.5 L94.5,60.5 L94.5,140.5 L70.5,140.5 L70.5,60.5 z" fill-opacity="0" stroke="#000000" stroke-width="1"/>
    </g>
    <g>
      <path d="M106.5,60.5 L130.5,60.5 L130.5,140.5 L106.5,140.5 L106.5,60.5 z" fill="#000000"/>
      <path d="M106.5,60.5 L130.5,60.5 L130.5,140.5 L106.5,140.5 L106.5,60.5 z" fill-opacity="0" stroke="#000000" stroke-width="1"/>
    </g>
  </g>
</svg>
